<svg xmlns="http://www.w3.org/2000/svg" width="26" height="25" viewBox="0 0 26 25">
  <path id="Comment" d="M488,1085c-7.168,0-13,5.22-13,11.638s5.832,11.638,13,11.638a14.2,14.2,0,0,0,5.059-.916l4.053,2.532a.871.871,0,0,0,.861-.01.861.861,0,0,0,.427-.744v-5.517a10.726,10.726,0,0,0,2.6-6.983C501,1090.22,495.168,1085,488,1085Zm9.638,18.18a.43.43,0,0,0-.1.281l.02,5.689-4.218-2.635a.438.438,0,0,0-.23-.065.423.423,0,0,0-.161.031,13.3,13.3,0,0,1-4.944.933c-6.69,0-12.133-4.834-12.133-10.776s5.443-10.775,12.133-10.775,12.133,4.834,12.133,10.775A9.9,9.9,0,0,1,497.638,1103.179Z" transform="translate(-475 -1085)" fill="#737373"/>
</svg>
