<svg xmlns="http://www.w3.org/2000/svg" width="158.049" height="96.079" viewBox="0 0 158.049 96.079">
  <g id="footer-logo" transform="translate(-880.976 -3023.676)">
    <text id="_2020_visgo.llc." data-name="© 2020 visgo.llc." transform="translate(960.491 3114.755)" fill="#313131" font-size="14" font-family="Poppins-Regular, Poppins" letter-spacing="0.05em"><tspan x="-60.872" y="0">© 2020 visgo.llc.</tspan></text>
    <g id="Group_8" data-name="Group 8" transform="translate(698.165 2610.2)">
      <path id="Path_5" data-name="Path 5" d="M243.346,435.788l-11.307,29.377-10.759-.015,11.307-29.378Z" transform="translate(-7.19 -4.167)"/>
      <path id="Path_6" data-name="Path 6" d="M275.958,437.65l-4.495,7.424c-2.563-1.91-4.168-2.5-6.451-2.508-2.412,0-3.872.586-4.183,1.769-.19.724.163,1.119,1.316,1.449l3.278.925c4.967,1.454,6.706,4.02,5.6,8.228-1.761,6.7-8.148,10.9-16.429,10.892-4.826-.007-8.1-1.2-12.258-4.489l5.843-7.093c3.417,2.635,5.231,3.427,8.165,3.431,2.543,0,4.167-.718,4.513-2.032.207-.79-.194-1.251-1.216-1.58l-3.314-.794c-5.131-1.322-6.787-3.955-5.578-8.556,1.589-6.047,7.615-10.116,15.179-10.105A18.139,18.139,0,0,1,275.958,437.65Z" transform="translate(-11.126 -3.95)"/>
      <path id="Path_7" data-name="Path 7" d="M322.5,435.708l-9.965,25.763c-2.986,7.886-5.308,11.763-8.707,14.52-3.612,2.822-8.131,4.131-14.064,4.122-5.216-.007-8.573-1.129-10.543-3.565-1.89-2.238-2.347-4.475-2.079-8.223l10.237.015c-.128,1.973,1.466,3.356,4.6,3.36,4.043.006,6.582-1.963,8.464-6.893l1.051-2.76c-3.906,2.953-6.17,3.87-9.56,3.866-7.889-.011-11.36-5.672-9.011-14.611,2.538-9.663,10.4-16.49,19.006-16.478,4.173.006,6.549,1.39,8.564,5.141l1.318-4.272ZM306.465,449.56c1-3.813-.528-6.182-4.049-6.187-3.781,0-7.267,3.081-8.424,7.485-1.037,3.944.637,6.511,4.158,6.516C301.932,457.378,305.222,454.293,306.465,449.56Z" transform="translate(-17.617 -3.99)"/>
      <path id="Path_8" data-name="Path 8" d="M368.326,449.975A21.847,21.847,0,0,1,346.9,465.99c-10.432-.015-15.851-6.2-13.415-15.472,2.4-9.137,11.478-15.633,21.911-15.619C365.63,434.914,370.727,440.839,368.326,449.975Zm-10.851-.41c.985-3.747-.611-6.116-4.2-6.121-3.977-.007-7.875,3.408-9.05,7.877-.984,3.748.724,6.183,4.31,6.188C352.517,457.515,356.267,454.167,357.475,449.566Z" transform="translate(-28.053 -4.004)"/>
      <path id="Path_9" data-name="Path 9" d="M211.057,422.139l10.93-2.92-21.136,51.557-18.04-39.261,10.228,1.2a2.768,2.768,0,0,1,2.216,1.647l5.576,12.84,8.3-23.223A2.767,2.767,0,0,1,211.057,422.139Z" transform="translate(0 -1.073)"/>
      <circle id="Ellipse_5" data-name="Ellipse 5" cx="5.913" cy="5.913" r="5.913" transform="translate(229.087 413.476)"/>
    </g>
  </g>
</svg>
