<svg xmlns="http://www.w3.org/2000/svg" width="29.53" height="27.974" viewBox="0 0 29.53 27.974">
  <path id="Icon" d="M502.564,941.98c-.431-4.834-3.789-8.341-7.992-8.341a7.919,7.919,0,0,0-6.806,4,7.634,7.634,0,0,0-6.643-4c-4.2,0-7.561,3.508-7.991,8.342a8.745,8.745,0,0,0,.251,3.168,13.639,13.639,0,0,0,4.088,6.951l10.288,9.512,10.464-9.512a13.641,13.641,0,0,0,4.089-6.952A8.777,8.777,0,0,0,502.564,941.98Zm-1.357,2.9a12.483,12.483,0,0,1-3.743,6.357l-9.7,8.815-9.531-8.813a12.493,12.493,0,0,1-3.746-6.359,7.648,7.648,0,0,1-.236-2.721l.008-.059c.369-4.234,3.255-7.31,6.862-7.31a6.663,6.663,0,0,1,6.117,4.349l.523,1.263.523-1.263a6.863,6.863,0,0,1,6.286-4.347c3.607,0,6.493,3.074,6.869,7.363A7.642,7.642,0,0,1,501.207,944.884Z" transform="translate(-473.084 -933.638)" fill="#f45c75"/>
</svg>
