<svg xmlns="http://www.w3.org/2000/svg" width="40" height="40" viewBox="0 0 40 40">
  <path id="Pinterest" d="M1284,3057a20,20,0,1,1,20,20A20,20,0,0,1,1284,3057Zm1.818,0A18.182,18.182,0,1,0,1304,3038.819,18.182,18.182,0,0,0,1285.818,3057Zm14.063,9.828a4.091,4.091,0,0,1-.091-.727,4.177,4.177,0,0,1-.063-1.446v-.609c.1-.419.09-.845.209-1.246.255-.909.409-1.818.654-2.727s.481-1.818.682-2.727a3.735,3.735,0,0,0-.328-.973,3.752,3.752,0,0,1,.182-2.119c.282-.636,1.091-1.618,2.146-1.364.045.012.089.027.133.043a1.635,1.635,0,0,1,.967,2.1c-.255,1.146-.645,2.164-.909,3.309a1.372,1.372,0,0,0,.118.781,1.718,1.718,0,0,0,2.028,1.018c1.536-.345,2.218-1.663,2.682-3.073.127-.382.109-.745.209-1.163a5.547,5.547,0,0,0-.182-2.9,3.917,3.917,0,0,0-2.591-2.2l-1.009-.174a5.575,5.575,0,0,0-2.091.155,4.91,4.91,0,0,0-3.81,4.637v.264a4.976,4.976,0,0,0,.419,1.564c.137.245.454.427.509.727a1.5,1.5,0,0,1-.146.582,3.024,3.024,0,0,1-.146.636c-.154.337-.681.082-.909-.055a4.544,4.544,0,0,1-1.654-4.873,7.011,7.011,0,0,1,.209-.909,7.429,7.429,0,0,1,3.391-3.7,8.269,8.269,0,0,1,2.109-.7l1.164-.146c3.628-.055,5.9,1.327,6.946,3.7a6.1,6.1,0,0,1,.445,3.482c-.118.481-.145.992-.3,1.446a8.484,8.484,0,0,1-1.255,2.463,5.453,5.453,0,0,1-3.218,1.946,3.8,3.8,0,0,1-3.009-.609,1.32,1.32,0,0,1-.563-.608,7.379,7.379,0,0,1-.41,1.555c-.191.608-.227,1.246-.472,1.818a11.5,11.5,0,0,1-.909,1.772c-.164.282-.7,1.272-1.073,1.272A.376.376,0,0,1,1299.882,3066.827Z" transform="translate(-1284 -3037)" fill="#313131"/>
</svg>
