<svg xmlns="http://www.w3.org/2000/svg" width="26" height="30" viewBox="0 0 26 30">
  <path id="Share" d="M496.474,1151.015a4.507,4.507,0,1,0-4.058-2.575l-9.383,5.8a4.492,4.492,0,1,0,0,5.53l9.383,5.8a4.506,4.506,0,1,0,.525-.848l-9.383-5.8a4.436,4.436,0,0,0,0-3.833l9.385-5.8a4.483,4.483,0,0,0,3.53,1.726Zm0,12.975a3.493,3.493,0,1,1-3.495,3.493,3.494,3.494,0,0,1,3.495-3.493ZM479.5,1160.5a3.493,3.493,0,1,1,3.494-3.494,3.494,3.494,0,0,1-3.494,3.494Zm16.973-17.467a3.494,3.494,0,1,1-3.495,3.494,3.495,3.495,0,0,1,3.495-3.494Zm0,0" transform="translate(-475 -1142)" fill="#737373"/>
</svg>
