<svg xmlns="http://www.w3.org/2000/svg" width="40" height="40" viewBox="0 0 40 40">
  <path id="Twitter" d="M1226,3057a20,20,0,1,1,20,20A20,20,0,0,1,1226,3057Zm1.819,0A18.182,18.182,0,1,0,1246,3038.819,18.181,18.181,0,0,0,1227.819,3057Zm15.718,7.273a10.682,10.682,0,0,1-5.718-1.654,7.689,7.689,0,0,0,.909.054,7.549,7.549,0,0,0,4.609-1.59,3.728,3.728,0,0,1-3.482-2.545,3.8,3.8,0,0,0,1.682-.064,3.69,3.69,0,0,1-2.991-3.636v-.046a3.757,3.757,0,0,0,1.69.464,3.59,3.59,0,0,1-1.154-4.873,10.644,10.644,0,0,0,7.69,3.837,3.644,3.644,0,0,1-.1-.837,3.7,3.7,0,0,1,3.727-3.636,3.754,3.754,0,0,1,2.728,1.164,7.55,7.55,0,0,0,2.372-.909,3.7,3.7,0,0,1-1.645,2.037,7.568,7.568,0,0,0,2.146-.582,7.572,7.572,0,0,1-1.818,1.9v.472c0,.062,0,.123,0,.184a10.453,10.453,0,0,1-10.448,10.264Z" transform="translate(-1226 -3037)" fill="#313131"/>
</svg>
